<?xml version="1.0" standalone="no"?>
<!DOCTYPE svg PUBLIC "-//W3C//DTD SVG 20010904//EN"
 "http://www.w3.org/TR/2001/REC-SVG-20010904/DTD/svg10.dtd">
<svg version="1.0" xmlns="http://www.w3.org/2000/svg"
 width="1024.000000pt" height="1024.000000pt" viewBox="0 0 1024.000000 1024.000000"
 preserveAspectRatio="xMidYMid meet">
<metadata>
Created by potrace 1.16, written by Peter Selinger 2001-2019
</metadata>
<g transform="translate(0.000000,1024.000000) scale(0.100000,-0.100000)"
fill="#000000" stroke="none">
<path d="M3069 8320 c-296 -29 -561 -158 -770 -377 -165 -173 -264 -372 -319
-640 -20 -102 -20 -112 -18 -2225 l3 -2123 27 -97 c58 -209 158 -394 291 -534
278 -294 506 -386 1002 -404 116 -4 198 -8 183 -8 -16 -1 -28 -6 -28 -11 0
-12 87 -23 166 -22 359 7 954 1 954 -9 0 -9 868 -3 1085 7 105 5 201 6 215 3
14 -4 68 -5 120 -2 127 6 544 7 758 1 146 -3 174 -2 182 11 7 11 12 12 18 3 8
-13 45 -15 233 -14 118 1 138 3 143 18 4 9 1 20 -5 24 -6 4 9 8 35 10 25 2 47
0 49 -6 5 -13 59 -8 69 8 5 8 11 8 16 2 4 -5 33 -11 65 -12 50 -2 57 0 57 18
0 21 16 26 23 7 4 -10 7 -10 14 0 13 17 111 52 129 45 8 -3 14 1 14 11 0 17
42 32 59 21 6 -3 11 0 12 7 1 7 5 2 9 -12 8 -24 8 -24 9 -2 1 15 7 22 21 22
23 0 41 31 22 38 -14 4 -16 62 -2 62 6 0 10 -9 10 -20 0 -11 5 -20 10 -20 6 0
10 9 10 20 0 11 5 20 10 20 6 0 10 18 10 40 0 29 4 40 15 40 27 0 65 47 65 80
0 16 -5 30 -10 30 -20 0 -60 -32 -53 -44 3 -6 2 -8 -2 -4 -5 5 -21 -6 -37 -24
-15 -17 -28 -29 -28 -25 0 4 -8 -1 -18 -10 -11 -10 -17 -21 -15 -25 2 -5 -4
-8 -14 -8 -10 0 -25 -9 -33 -20 -8 -11 -20 -20 -26 -20 -7 0 -15 -7 -18 -16
-3 -8 -11 -12 -17 -9 -5 4 -19 -1 -30 -11 -10 -9 -21 -15 -24 -12 -3 3 30 29
74 57 43 29 87 61 96 71 10 11 22 17 26 14 5 -3 9 -1 9 4 0 5 17 27 38 49 20
22 46 50 57 64 11 14 17 21 13 15 -8 -11 15 -36 34 -36 22 0 46 51 38 80 -4
14 -12 24 -18 23 -6 -2 3 20 20 47 17 27 35 47 41 43 6 -3 7 -1 4 4 -4 6 6 39
22 74 16 35 39 96 51 136 16 49 27 70 37 66 7 -3 13 -1 13 5 0 6 3 18 7 28 5
13 3 16 -9 11 -12 -4 -14 -1 -10 15 2 11 8 15 11 10 14 -23 16 246 16 2253 0
2332 5 2154 -62 2352 -68 206 -149 332 -314 494 -141 139 -280 224 -468 288
-173 59 -7 55 -2246 57 -1127 1 -2084 -2 -2126 -6z m2172 -387 c55 -29 105
-95 115 -150 24 -129 -78 -260 -210 -271 -148 -12 -284 139 -246 274 15 52 77
127 129 154 56 30 151 27 212 -7z m1594 -12 c80 -36 144 -127 145 -204 0 -71
-72 -175 -145 -208 -54 -25 -135 -24 -184 1 -41 21 -91 74 -115 123 l-14 30
-266 1 c-146 0 -266 -2 -266 -6 0 -5 -16 -26 -36 -48 -25 -27 -52 -45 -89 -56
-78 -25 -128 -9 -195 62 -48 51 -54 54 -101 54 -43 0 -49 3 -49 20 0 24 42 70
64 70 8 0 28 24 45 53 36 63 54 81 104 102 85 35 185 7 238 -68 l31 -44 165
-6 c92 -4 208 -7 258 -7 l92 0 39 53 c50 66 108 97 184 97 32 0 72 -8 95 -19z
m-2267 -19 c78 -56 111 -197 64 -273 -53 -86 -158 -120 -248 -80 -54 24 -89
54 -109 91 l-13 25 -552 -5 -552 -5 -19 -49 c-35 -93 -109 -146 -204 -146 -96
0 -162 48 -211 155 -40 85 -29 155 36 229 47 53 98 76 166 76 74 0 133 -28
180 -86 l36 -44 562 0 561 0 16 39 c10 23 34 52 60 71 42 30 48 32 119 28 59
-2 82 -8 108 -26z m2861 -20 c65 -39 111 -118 111 -189 0 -187 -210 -297 -362
-191 -37 26 -98 150 -98 200 0 45 36 122 74 157 14 13 49 32 78 43 69 24 137
18 197 -20z m-4798 -453 c41 -9 62 -22 105 -63 93 -90 106 -199 36 -301 -77
-112 -232 -143 -343 -70 -51 33 -99 130 -99 199 1 111 78 211 185 237 44 10
59 10 116 -2z m5110 -1 c117 -34 193 -178 159 -298 -15 -52 -70 -126 -110
-149 -99 -56 -189 -47 -269 25 -121 109 -126 280 -12 375 66 56 148 73 232 47z
m-1569 -97 c123 -34 184 -59 262 -112 172 -115 333 -345 386 -552 40 -157 41
-207 38 -1287 l-3 -1045 -88 0 c-80 0 -88 2 -92 20 -2 11 -6 499 -9 1085 l-6
1065 -29 111 c-34 130 -75 224 -125 291 -52 70 -182 179 -251 212 -119 57 -97
56 -1150 55 -533 0 -995 -4 -1026 -8 l-57 -7 52 -52 c66 -66 121 -172 151
-290 l23 -92 3 -1570 c2 -1756 9 -1584 -70 -1744 -42 -87 -143 -201 -202 -228
-21 -10 -39 -21 -39 -24 0 -12 106 -19 281 -19 213 0 299 8 299 26 0 21 146
181 198 216 26 17 81 62 123 100 l76 68 32 -16 c28 -14 127 -33 173 -34 10 0
35 15 55 34 49 43 75 51 129 36 56 -16 107 -73 123 -136 10 -39 9 -51 -8 -88
-23 -53 -77 -96 -130 -103 -59 -8 -123 32 -152 95 l-22 47 -99 -1 -100 -1
-116 -110 c-64 -61 -113 -114 -109 -119 4 -4 370 -7 813 -6 696 2 809 4 841
17 20 9 73 53 117 98 61 62 92 104 127 172 72 139 79 181 79 468 0 135 3 248
8 250 4 3 45 2 92 -2 l85 -6 3 -165 c6 -363 -41 -549 -185 -730 -71 -88 -120
-127 -243 -193 -155 -84 -55 -79 -1433 -74 -1377 5 -1241 -4 -1431 87 -138 66
-209 131 -269 247 -72 141 -92 217 -91 353 0 102 4 126 32 208 36 105 64 158
118 220 92 108 215 152 492 177 l72 6 0 -83 c0 -46 -4 -89 -9 -97 -7 -10 -42
-17 -123 -22 -148 -10 -214 -34 -283 -103 -196 -196 -154 -573 80 -707 91 -52
217 -36 326 42 54 38 126 154 155 247 31 102 31 115 15 542 -7 201 -13 792
-14 1480 l-2 1145 -38 100 c-50 135 -65 161 -115 211 -54 54 -131 84 -215 84
-120 0 -214 -72 -284 -218 -60 -125 -57 -271 9 -402 39 -78 87 -125 168 -164
59 -28 76 -31 181 -34 l117 -4 4 -92 c3 -50 3 -95 0 -100 -6 -11 -167 -1 -242
15 -99 21 -237 103 -308 184 -52 59 -86 117 -119 203 -24 60 -26 81 -27 202 0
149 12 204 67 319 41 85 141 188 222 228 84 43 217 83 300 92 39 5 574 7 1190
5 1102 -2 1121 -3 1197 -23z m1024 -55 c38 -37 44 -49 44 -85 0 -48 -31 -115
-59 -131 -30 -15 -138 -12 -171 5 -39 20 -60 63 -60 121 0 42 5 51 44 90 41
42 46 44 101 44 55 0 60 -2 101 -44z m-2530 -285 c18 -11 43 -34 57 -53 64
-84 60 -156 -11 -227 -82 -82 -151 -84 -230 -8 -78 75 -91 156 -34 226 64 80
149 104 218 62z m1470 -107 c56 -7 84 -35 84 -84 0 -28 -5 -40 -17 -43 -10 -3
-298 -5 -641 -6 l-623 -1 -9 26 c-14 36 -12 90 3 106 11 10 122 12 588 10 316
-1 592 -5 615 -8z m-3529 -365 c-3 -236 -9 -364 -16 -368 -6 -4 4 -18 23 -33
44 -35 86 -120 86 -172 -1 -54 -31 -119 -69 -147 l-31 -23 0 -283 0 -283 27
-6 c15 -4 195 -4 400 -1 l373 6 0 -70 c0 -38 -1 -69 -2 -69 -2 -1 -183 -3
-403 -6 -220 -3 -400 -6 -401 -7 -3 -6 13 -258 17 -261 2 -3 59 -1 126 4 102
7 132 13 192 40 69 30 76 31 209 30 75 0 154 -4 175 -9 20 -5 93 -37 161 -72
69 -35 126 -61 128 -59 2 3 1 205 -2 450 -3 245 -4 502 -2 571 l3 127 44 -25
c26 -14 52 -22 64 -18 14 4 20 0 25 -17 10 -38 7 -958 -4 -1022 -5 -33 -8 -62
-5 -64 2 -2 25 -8 51 -13 58 -11 74 -24 74 -60 0 -51 -16 -75 -58 -87 -58 -18
-142 -15 -284 9 l-126 22 -55 -32 c-63 -36 -108 -39 -154 -11 -40 24 -56 53
-57 107 l0 43 -63 0 c-35 0 -80 -7 -99 -15 -33 -14 -36 -18 -29 -42 5 -16 10
-154 12 -308 2 -154 5 -289 8 -300 2 -11 20 -29 40 -39 50 -27 89 -96 89 -157
0 -115 -143 -207 -242 -155 -56 30 -112 110 -112 162 0 35 32 101 67 138 l27
29 -12 300 c-6 165 -9 304 -6 309 3 5 -36 8 -93 6 l-98 -3 4 -627 3 -628 -65
0 c-36 0 -68 3 -70 8 -3 4 -6 375 -8 825 -4 712 -2 819 11 827 18 11 7 16 -62
25 -54 7 -63 17 -73 88 l-7 47 48 0 c27 0 54 4 60 8 8 5 12 83 14 247 4 332 5
324 -25 335 -47 18 -93 90 -94 150 -1 40 42 122 87 165 l42 39 0 256 c0 140 3
306 7 368 l6 112 65 0 65 0 -6 -361z m5169 14 c-2 -192 -7 -359 -11 -373 -5
-22 0 -28 34 -48 53 -30 101 -110 101 -170 0 -67 -44 -139 -97 -159 -21 -8
-21 -13 -26 -290 l-5 -283 37 0 c77 0 81 -5 81 -81 l0 -69 -416 0 -416 0 6 43
c4 24 2 56 -3 70 l-11 27 268 1 c147 0 290 4 317 9 28 4 43 8 33 9 -23 2 -30
95 -26 353 3 207 3 207 -20 220 -12 6 -31 26 -42 42 -49 80 -30 185 49 266 26
28 42 50 36 50 -18 0 -25 120 -25 442 l0 288 71 0 70 0 -5 -347z m-3817 305
c47 -21 71 -49 71 -82 0 -20 -18 -24 -145 -37 -116 -12 -140 -22 -85 -34 16
-4 37 -16 45 -28 18 -26 20 -138 3 -155 -7 -7 -35 -12 -63 -12 -61 0 -125 37
-165 96 -22 33 -25 49 -25 120 0 74 3 85 24 108 34 36 68 44 188 45 85 1 110
-3 152 -21z m-989 -190 c63 -32 105 -95 105 -157 0 -62 -37 -120 -94 -145
l-41 -19 0 -324 c0 -177 4 -323 9 -323 4 0 37 -34 72 -76 l64 -76 155 3 155 4
0 -70 0 -70 -181 -3 -182 -2 -117 117 -116 118 6 352 7 353 -32 26 c-79 67
-80 163 -5 253 54 63 121 76 195 39z m4456 3 c23 -10 53 -35 68 -54 60 -78 54
-156 -16 -223 l-44 -41 7 -84 c4 -46 8 -206 8 -356 l1 -271 -77 -79 c-43 -43
-90 -94 -104 -113 l-26 -35 -94 3 -94 3 1 62 1 62 66 3 66 3 25 43 c14 23 43
59 64 78 l40 36 -9 248 c-4 137 -8 282 -9 322 0 52 -4 72 -13 72 -19 0 -84 70
-96 103 -16 43 -13 94 8 135 48 93 134 125 227 83z m-979 -163 c35 -40 36 -48
8 -89 l-28 -39 -972 0 -972 0 -27 26 c-31 32 -33 62 -5 98 l20 26 978 0 978 0
20 -22z m5 -329 c36 -36 35 -50 -7 -95 l-35 -37 -128 6 c-70 4 -503 7 -963 7
l-836 0 -27 26 c-31 32 -33 62 -5 98 l21 27 976 -2 977 -2 27 -28z m-3167
-148 c94 -53 100 -192 12 -261 -102 -80 -271 34 -237 161 14 52 55 96 105 114
44 15 74 11 120 -14z m3879 -26 c21 -20 38 -49 42 -70 10 -56 -4 -102 -42
-140 -45 -46 -106 -49 -154 -9 -81 68 -80 163 2 228 50 39 107 36 152 -9z
m-711 -156 c15 -16 27 -34 27 -39 0 -5 -14 -26 -32 -45 l-31 -37 -971 7 c-895
5 -972 7 -989 23 -34 30 -39 49 -22 81 8 17 23 34 32 40 11 6 374 7 988 4
l970 -4 28 -30z m-938 -289 l902 0 27 -26 c34 -34 33 -66 -2 -105 l-28 -31
-969 7 -969 8 -23 23 c-34 34 -30 76 9 109 30 25 37 27 92 21 32 -3 465 -6
961 -6z m931 -351 c30 -28 31 -68 3 -103 l-20 -26 -970 0 c-646 0 -977 3 -990
10 -26 14 -51 67 -44 90 3 11 18 28 32 39 25 20 37 20 995 16 l971 -4 23 -22z
m1328 -235 c7 -19 5 -966 -3 -1314 l-6 -255 -62 -3 c-57 -3 -62 -1 -65 20 -2
13 -2 299 0 636 l5 612 -115 0 -116 0 14 -37 c10 -28 13 -111 14 -319 l0 -280
35 -34 c42 -40 59 -88 52 -142 -6 -48 -48 -111 -92 -138 -38 -24 -113 -27
-153 -6 -84 44 -126 160 -86 239 23 45 64 87 86 87 17 0 18 15 18 248 -1 244
-10 376 -28 394 -5 5 -25 11 -44 14 l-35 6 -5 -47 c-4 -33 -14 -55 -34 -76
-38 -39 -72 -38 -116 5 -46 45 -52 85 -22 143 13 24 27 61 30 82 3 21 10 44
14 51 11 17 120 14 220 -5 81 -16 348 -43 356 -36 2 2 4 37 4 77 0 80 -3 76
70 87 49 8 58 7 64 -9z m-1331 -92 c34 -32 34 -62 1 -101 l-26 -31 -591 1
c-326 1 -765 5 -977 8 l-384 6 -23 34 c-29 43 -29 53 5 88 l27 29 970 -4 970
-4 28 -26z m5 -328 c29 -33 28 -47 -6 -85 l-27 -30 -968 -1 -969 -1 -23 24
c-37 38 -39 63 -10 97 l26 31 977 -5 977 -5 23 -25z m-3197 -123 c63 -63 52
-128 -28 -170 -39 -20 -73 -13 -109 23 -38 38 -44 77 -19 126 37 71 98 79 156
21z m3906 -9 c64 -85 33 -182 -58 -182 -51 0 -87 18 -105 51 -30 59 -8 118 60
160 43 27 65 21 103 -29z m-1824 -106 c69 -28 119 -126 98 -187 -47 -135 -184
-162 -268 -52 -40 52 -40 134 -1 185 29 38 79 67 116 68 12 0 37 -6 55 -14z
m1084 -17 c14 -13 32 -39 40 -57 12 -30 12 -37 -4 -70 l-18 -37 -264 -2 -264
-1 -120 -127 c-66 -69 -117 -129 -113 -132 10 -10 166 -22 307 -22 l136 -1 54
54 c66 65 114 84 177 66 58 -15 132 -112 132 -171 0 -78 -73 -171 -145 -185
-78 -14 -140 12 -183 77 l-22 34 -253 -3 c-138 -2 -245 -6 -237 -9 8 -3 68
-57 132 -120 l117 -115 241 3 242 4 24 -28 c32 -37 30 -62 -6 -99 -27 -27 -35
-29 -68 -23 -20 4 -141 9 -268 12 l-232 4 -146 160 c-80 87 -146 166 -146 173
0 8 6 18 13 23 6 4 -161 10 -373 13 -430 6 -383 12 -441 -63 -29 -38 -90 -67
-139 -67 -99 0 -180 84 -184 189 -1 37 5 55 31 93 74 105 207 117 278 24 l27
-35 381 5 c374 6 382 7 397 27 78 110 147 191 231 271 l100 96 62 -1 c34 0
114 -4 177 -8 l115 -8 48 45 c46 42 51 44 93 39 28 -3 55 -14 71 -28z m-1499
-120 c63 -67 122 -145 122 -161 0 -5 -20 -8 -45 -8 -41 0 -49 5 -100 58 l-57
57 -146 -3 c-81 -1 -159 -5 -174 -8 -21 -4 -34 1 -53 20 -33 33 -32 69 1 95
25 19 40 21 206 21 l179 0 67 -71z m-1064 -326 c15 -51 16 -98 6 -198 -9 -100
-13 -112 -37 -134 -23 -20 -34 -23 -80 -19 -94 8 -133 66 -133 201 0 132 33
167 157 167 69 0 82 -3 87 -17z m-1200 -548 c92 -39 156 -135 156 -232 -1
-107 -54 -188 -147 -223 -64 -24 -115 -25 -171 -6 -148 52 -199 197 -123 347
38 78 72 113 121 128 42 12 116 6 164 -14z m5119 -2 c45 -23 101 -91 123 -148
33 -88 -8 -217 -88 -275 -191 -138 -443 41 -372 265 19 63 83 142 136 169 42
21 151 16 201 -11z m-4561 -84 c27 -14 58 -74 58 -113 0 -47 -20 -85 -64 -124
-64 -56 -140 -55 -196 3 -62 64 -50 172 25 221 49 32 128 38 177 13z m3925 0
c107 -40 133 -173 48 -248 -29 -25 -44 -31 -83 -31 -58 1 -83 14 -121 65 -87
115 22 265 156 214z m-4109 -431 c52 -25 98 -84 107 -138 l7 -40 553 0 554 0
6 23 c13 42 56 87 108 113 43 22 60 26 109 21 74 -7 115 -31 155 -90 63 -94
54 -189 -26 -268 -53 -53 -110 -74 -176 -64 -59 8 -128 54 -149 99 l-17 36
-567 0 -567 -1 -28 -40 c-31 -45 -112 -89 -165 -89 -71 0 -156 54 -199 127
-35 60 -37 147 -5 209 25 50 92 111 129 120 16 3 33 7 38 9 21 7 92 -8 133
-27z m4354 12 c74 -21 142 -106 154 -192 17 -126 -89 -247 -217 -248 -88 0
-154 35 -200 108 -39 61 -40 136 -4 208 55 111 152 156 267 124z m-2141 -47
c160 -82 158 -317 -3 -397 -59 -30 -138 -35 -192 -12 -48 20 -107 75 -127 121
-24 52 -24 138 0 191 50 111 203 156 322 97z m1594 3 c71 -33 110 -80 139
-168 3 -12 16 -18 34 -18 35 0 52 -16 52 -51 0 -31 -12 -38 -56 -32 -28 5 -35
0 -62 -40 -62 -89 -127 -124 -214 -114 -66 8 -117 39 -155 93 l-31 45 -273 -1
c-175 0 -275 -4 -277 -11 -9 -26 -60 -74 -97 -90 -97 -44 -205 1 -259 108 -39
77 -5 185 74 238 39 26 54 30 111 30 56 0 71 -4 102 -28 20 -15 47 -46 59 -67
l23 -40 201 0 c111 0 228 -3 262 -6 l61 -7 15 37 c54 129 171 178 291 122z"/>
<path d="M5081 7826 c-31 -17 -50 -53 -51 -94 0 -49 54 -102 105 -102 29 0 45
8 71 34 37 37 41 59 20 111 -24 56 -93 80 -145 51z"/>
<path d="M6713 7815 c-42 -18 -63 -52 -63 -103 0 -61 41 -102 100 -102 120 0
140 177 24 209 -20 6 -41 4 -61 -4z"/>
<path d="M5780 7807 c-30 -14 -64 -79 -56 -105 9 -26 58 -52 99 -52 26 0 41 7
56 26 38 49 23 106 -34 130 -41 17 -34 17 -65 1z"/>
<path d="M4444 7809 c-28 -10 -64 -57 -64 -83 0 -54 79 -108 123 -85 53 29 63
89 22 137 -28 34 -51 42 -81 31z"/>
<path d="M2871 7784 c-80 -72 -30 -204 77 -204 33 0 66 31 83 78 22 63 -25
137 -93 148 -29 5 -41 1 -67 -22z"/>
<path d="M7270 7783 c-40 -28 -49 -45 -50 -96 0 -64 39 -107 97 -107 108 1
141 139 47 201 -36 23 -62 24 -94 2z"/>
<path d="M2499 7282 c-66 -59 -41 -175 43 -196 52 -13 98 3 125 43 42 61 22
130 -47 166 -45 23 -86 19 -121 -13z"/>
<path d="M7625 7311 c-51 -21 -80 -84 -65 -141 14 -53 60 -90 112 -90 56 0
108 51 108 107 0 50 -32 101 -75 119 -38 16 -51 16 -80 5z"/>
<path d="M2477 5992 c-27 -30 -22 -87 9 -111 35 -28 52 -26 86 6 33 32 38 81
10 106 -25 23 -85 22 -105 -1z"/>
<path d="M7675 5979 c-22 -41 -16 -78 16 -101 24 -19 28 -19 56 -4 72 37 53
136 -25 136 -25 0 -35 -6 -47 -31z"/>
<path d="M6260 3830 c-48 -48 -7 -137 59 -124 36 8 51 29 51 73 0 38 -31 71
-65 71 -14 0 -34 -9 -45 -20z"/>
<path d="M4551 3816 c-38 -40 -27 -111 20 -137 17 -9 27 -7 48 8 43 32 55 67
36 103 -14 27 -48 50 -74 50 -4 0 -18 -11 -30 -24z"/>
<path d="M2530 3158 c-38 -20 -70 -75 -70 -120 0 -32 7 -47 35 -75 33 -33 39
-35 86 -31 86 9 136 79 105 151 -29 68 -102 103 -156 75z"/>
<path d="M7593 3148 c-65 -72 -54 -172 22 -204 46 -19 74 -18 109 5 40 26 55
57 56 110 0 36 -6 49 -34 77 -29 29 -41 34 -83 34 -39 0 -54 -5 -70 -22z"/>
<path d="M2873 2661 c-91 -56 -48 -211 59 -211 85 0 130 111 73 179 -14 16
-36 33 -48 36 -12 4 -29 8 -37 11 -8 2 -29 -5 -47 -15z"/>
<path d="M4398 2611 c-83 -73 -41 -171 72 -171 109 0 104 175 -6 196 -25 5
-38 0 -66 -25z"/>
<path d="M7251 2635 c-65 -75 -25 -185 67 -185 59 0 102 45 102 107 0 38 -5
50 -34 79 -48 48 -92 47 -135 -1z"/>
<path d="M5059 2611 c-36 -37 -41 -104 -9 -143 78 -100 230 -23 190 97 -25 75
-126 100 -181 46z"/>
<path d="M6702 2624 c-73 -51 -65 -157 13 -190 39 -16 72 -9 108 24 21 21 27
35 27 70 0 56 -14 80 -55 98 -44 18 -65 18 -93 -2z"/>
<path d="M5800 2613 c-62 -23 -82 -109 -36 -152 36 -34 92 -33 122 3 34 39 32
89 -5 127 -28 28 -49 34 -81 22z"/>
</g>
</svg>
